<svg width="24" height="24" viewBox="0 0 24 24" fill="none" xmlns="http://www.w3.org/2000/svg">
<path d="M19.03 20.4986L17.24 18.6904L18.64 17.284L20.44 19.0822L19.03 20.4986Z" fill="black" fill-opacity="1.0"/>
<path d="M12 5.9726C8.69 5.9726 6 8.67488 6 12C6 15.3251 8.69 18.0274 12 18.0274C15.31 18.0274 18 15.3251 18 12C18 8.67488 15.31 5.9726 12 5.9726Z" fill="black" fill-opacity="1.0"/>
<path d="M20 10.9954V13.0046H23V10.9954H20Z" fill="black" fill-opacity="1.0"/>
<path d="M20.45 4.92786L19.04 3.51142L17.25 5.3096L18.66 6.72603L20.45 4.92786Z" fill="black" fill-opacity="1.0"/>
<path d="M13 1H11V3.96347H13V1Z" fill="black" fill-opacity="1.0"/>
<path d="M6.76 5.3096L4.96 3.51142L3.55 4.92786L5.34 6.72603L6.76 5.3096Z" fill="black" fill-opacity="1.0"/>
<path d="M4 10.9954H1V13.0046H4V10.9954Z" fill="black" fill-opacity="1.0"/>
<path d="M3.55 19.0722L4.96 20.4886L6.75 18.6804L5.34 17.2639L3.55 19.0722Z" fill="black" fill-opacity="1.0"/>
<path d="M11 23H13V20.0365H11V23Z" fill="black" fill-opacity="1.0"/>
</svg>
