<svg width="23" height="20" viewBox="0 0 23 20" fill="none" xmlns="http://www.w3.org/2000/svg">
<path fill-rule="evenodd" clip-rule="evenodd" d="M3.96 3.05005L5.76 4.84005L4.34 6.25005L2.55 4.46005L3.96 3.05005ZM18.04 3.05005L19.45 4.46005L17.66 6.25005L16.25 4.84005L18.04 3.05005ZM5 11.5C5 8.19005 7.69 5.50005 11 5.50005C12.8948 5.50005 14.5864 6.38151 15.6865 7.75615C15.1875 7.62175 14.6623 7.55005 14.12 7.55005C11.8273 7.55005 9.836 8.83756 8.84433 10.7217C7.28342 10.8859 5.94962 11.7982 5.21297 13.0879C5.07415 12.582 5 12.0496 5 11.5ZM18.9776 13.1526C18.5222 10.7807 16.5224 9.00006 14.12 9.00006C12.2126 9.00006 10.556 10.1276 9.731 11.7776C7.7444 11.9976 6.2 13.7507 6.2 15.8751C6.2 18.1507 7.9754 20.0001 10.16 20.0001H18.74C20.5616 20.0001 22.04 18.4601 22.04 16.5626C22.04 14.7476 20.687 13.2763 18.9776 13.1526ZM3 10.5H0V12.5H3V10.5ZM12 0.550049H10V3.50005H12V0.550049Z" fill="black" fill-opacity="1.0"/>
</svg>
