<svg width="48" height="48" viewBox="0 0 48 48" fill="none" xmlns="http://www.w3.org/2000/svg">
<path fill-rule="evenodd" clip-rule="evenodd" d="M15.9999 27.31V32H20.6899L23.9999 35.31L27.3099 32H31.9999V27.31L35.3099 24L31.9999 20.69V16H27.3099L23.9999 12.69L20.6899 16H15.9999V20.69L12.6899 24L15.9999 27.31ZM26.4999 18.55C25.7399 18.2 24.8899 18 23.9999 18C20.6899 18 17.9999 20.69 17.9999 24C17.9999 27.31 20.6899 30 23.9999 30C24.8899 30 25.7399 29.8 26.4999 29.45C24.4399 28.5 22.9999 26.42 22.9999 24C22.9999 21.58 24.4399 19.5 26.4999 18.55Z" fill="black" fill-opacity="0.5"/>
</svg>
